<svg width="20" height="20" viewBox="0 0 20 20" fill="none" xmlns="http://www.w3.org/2000/svg">
<g clip-path="url(#clip0_2095_159)">
<path d="M12.4966 17.4949V10.8302C12.4966 10.6092 12.4088 10.3973 12.2526 10.2411C12.0964 10.0848 11.8845 9.99707 11.6635 9.99707H8.33114C8.11019 9.99707 7.89829 10.0848 7.74206 10.2411C7.58582 10.3973 7.49805 10.6092 7.49805 10.8302V17.4949" stroke="white" stroke-width="1.66619" stroke-linecap="round" stroke-linejoin="round"/>
<path d="M2.5 8.33132C2.49994 8.08895 2.55276 7.84948 2.65478 7.62962C2.75679 7.40976 2.90555 7.21481 3.09066 7.05835L8.92233 2.06061C9.22307 1.80644 9.6041 1.66699 9.99786 1.66699C10.3916 1.66699 10.7727 1.80644 11.0734 2.06061L16.9051 7.05835C17.0902 7.21481 17.2389 7.40976 17.3409 7.62962C17.443 7.84948 17.4958 8.08895 17.4957 8.33132V15.8292C17.4957 16.2711 17.3202 16.6949 17.0077 17.0074C16.6952 17.3198 16.2714 17.4954 15.8295 17.4954H4.16619C3.72429 17.4954 3.30049 17.3198 2.98802 17.0074C2.67554 16.6949 2.5 16.2711 2.5 15.8292V8.33132Z" stroke="white" stroke-width="1.66619" stroke-linecap="round" stroke-linejoin="round"/>
</g>
<defs>
<clipPath id="clip0_2095_159">
<rect width="19.9943" height="19.9943" fill="white"/>
</clipPath>
</defs>
</svg>
