<svg width="20" height="20" viewBox="0 0 20 20" fill="none" xmlns="http://www.w3.org/2000/svg">
<g clip-path="url(#clip0_1894_6127)">
<path d="M8.55469 17.4951C8.70093 17.7484 8.91127 17.9587 9.16455 18.1049C9.41783 18.2512 9.70515 18.3281 9.99761 18.3281C10.2901 18.3281 10.5774 18.2512 10.8307 18.1049C11.084 17.9587 11.2943 17.7484 11.4405 17.4951" stroke="#101828" stroke-width="1.66619" stroke-linecap="round" stroke-linejoin="round"/>
<path d="M2.71766 12.7678C2.60883 12.8871 2.53701 13.0355 2.51093 13.1948C2.48486 13.3542 2.50566 13.5177 2.57079 13.6654C2.63593 13.8132 2.7426 13.9388 2.87783 14.027C3.01306 14.1153 3.17102 14.1623 3.33249 14.1624H16.662C16.8235 14.1625 16.9815 14.1156 17.1168 14.0276C17.2521 13.9395 17.3589 13.814 17.4242 13.6664C17.4895 13.5187 17.5105 13.3552 17.4846 13.1959C17.4588 13.0365 17.3872 12.8881 17.2785 12.7687C16.1705 11.6265 14.9958 10.4127 14.9958 6.66459C14.9958 5.33888 14.4692 4.06748 13.5318 3.13006C12.5944 2.19265 11.323 1.66602 9.99725 1.66602C8.67155 1.66602 7.40014 2.19265 6.46273 3.13006C5.52531 4.06748 4.99868 5.33888 4.99868 6.66459C4.99868 10.4127 3.82318 11.6265 2.71766 12.7678Z" stroke="#101828" stroke-width="1.66619" stroke-linecap="round" stroke-linejoin="round"/>
</g>
<defs>
<clipPath id="clip0_1894_6127">
<rect width="19.9943" height="19.9943" fill="white"/>
</clipPath>
</defs>
</svg>
