<svg width="20" height="20" viewBox="0 0 20 20" fill="none" xmlns="http://www.w3.org/2000/svg">
<g clip-path="url(#clip0_2095_183)">
<path d="M4.99929 1.66602L2.5 4.9984V16.6617C2.5 17.1036 2.67554 17.5274 2.98802 17.8399C3.30049 18.1524 3.72429 18.3279 4.16619 18.3279H15.8295C16.2714 18.3279 16.6952 18.1524 17.0077 17.8399C17.3202 17.5274 17.4957 17.1036 17.4957 16.6617V4.9984L14.9964 1.66602H4.99929Z" stroke="#99A1AF" stroke-width="1.66619" stroke-linecap="round" stroke-linejoin="round"/>
<path d="M2.5 4.99902H17.4957" stroke="#99A1AF" stroke-width="1.66619" stroke-linecap="round" stroke-linejoin="round"/>
<path d="M13.3288 8.33105C13.3288 9.21486 12.9777 10.0625 12.3528 10.6874C11.7279 11.3123 10.8802 11.6634 9.99644 11.6634C9.11264 11.6634 8.26504 11.3123 7.64009 10.6874C7.01515 10.0625 6.66406 9.21486 6.66406 8.33105" stroke="#99A1AF" stroke-width="1.66619" stroke-linecap="round" stroke-linejoin="round"/>
</g>
<defs>
<clipPath id="clip0_2095_183">
<rect width="19.9943" height="19.9943" fill="white"/>
</clipPath>
</defs>
</svg>
