<svg width="18" height="18" viewBox="0 0 18 18" fill="none" xmlns="http://www.w3.org/2000/svg">
<g clip-path="url(#clip0_2173_998)">
<path d="M8.64266 1.72116C8.67552 1.65476 8.72629 1.59886 8.78924 1.55979C8.85218 1.52071 8.92479 1.5 8.99888 1.5C9.07297 1.5 9.14558 1.52071 9.20853 1.55979C9.27147 1.59886 9.32224 1.65476 9.35511 1.72116L11.0875 5.23016C11.2016 5.46112 11.3701 5.66094 11.5784 5.81246C11.7868 5.96399 12.0288 6.06269 12.2837 6.1001L16.1579 6.66707C16.2313 6.6777 16.3003 6.70867 16.357 6.75646C16.4137 6.80425 16.4559 6.86696 16.4789 6.9375C16.5018 7.00804 16.5046 7.08359 16.4868 7.15561C16.469 7.22763 16.4315 7.29324 16.3784 7.34502L13.5766 10.0733C13.3918 10.2534 13.2535 10.4757 13.1737 10.721C13.0939 10.9664 13.0749 11.2274 13.1183 11.4817L13.7798 15.3365C13.7928 15.4098 13.7848 15.4854 13.7569 15.5545C13.729 15.6236 13.6823 15.6834 13.622 15.7272C13.5617 15.771 13.4903 15.7969 13.416 15.8021C13.3416 15.8073 13.2674 15.7915 13.2016 15.7564L9.73833 13.9356C9.51013 13.8157 9.25625 13.7531 8.99851 13.7531C8.74077 13.7531 8.48688 13.8157 8.25868 13.9356L4.79617 15.7564C4.73042 15.7912 4.65623 15.8069 4.58202 15.8016C4.50782 15.7964 4.43658 15.7704 4.37642 15.7266C4.31626 15.6829 4.26958 15.6231 4.2417 15.5541C4.21382 15.4852 4.20585 15.4097 4.21871 15.3365L4.87941 11.4825C4.92306 11.2281 4.90415 10.9668 4.82432 10.7213C4.74449 10.4758 4.60614 10.2534 4.4212 10.0733L1.61939 7.34577C1.56584 7.29405 1.52789 7.22832 1.50987 7.15609C1.49185 7.08385 1.49447 7.00801 1.51745 6.93719C1.54043 6.86637 1.58284 6.80344 1.63984 6.75555C1.69685 6.70766 1.76616 6.67674 1.83987 6.66632L5.71336 6.1001C5.96853 6.06298 6.21087 5.96441 6.4195 5.81286C6.62813 5.66132 6.79681 5.46135 6.91103 5.23016L8.64266 1.72116Z" fill="#FF6900" stroke="#FF6900" stroke-width="1.4999" stroke-linecap="round" stroke-linejoin="round"/>
</g>
<defs>
<clipPath id="clip0_2173_998">
<rect width="17.9988" height="17.9988" fill="white"/>
</clipPath>
</defs>
</svg>
